<svg xmlns="http://www.w3.org/2000/svg" xmlns:xlink="http://www.w3.org/1999/xlink" id="processonSvg1000" viewBox="241.00521850585938 206.03125 503.5 168.0" width="503.5" height="168.0"><defs id="ProcessOnDefs1001"><pattern id="ProcessOnPattern1009" patternUnits="userSpaceOnUse" width="54.0" height="87.0"><image id="ProcessOnImage1010" xlink:href="https://cdn3.iconfinder.com/data/icons/virtual-notebook/16/button_shape_line-128.png" width="87.0" height="87.0" transform="matrix(1.0,0.0,0.0,1.0,-16.5,0.0)"/></pattern><pattern id="ProcessOnPattern1013" patternUnits="userSpaceOnUse" width="54.0" height="87.0"><image id="ProcessOnImage1014" xlink:href="https://cdn3.iconfinder.com/data/icons/virtual-notebook/16/button_shape_line-128.png" width="87.0" height="87.0" transform="matrix(1.0,0.0,0.0,1.0,-16.5,0.0)"/></pattern><pattern id="ProcessOnPattern1017" patternUnits="userSpaceOnUse" width="54.0" height="87.0"><image id="ProcessOnImage1018" xlink:href="https://cdn3.iconfinder.com/data/icons/virtual-notebook/16/button_shape_line-128.png" width="87.0" height="87.0" transform="matrix(1.0,0.0,0.0,1.0,-16.5,0.0)"/></pattern><pattern id="ProcessOnPattern1021" patternUnits="userSpaceOnUse" width="54.0" height="87.0"><image id="ProcessOnImage1022" xlink:href="https://cdn3.iconfinder.com/data/icons/virtual-notebook/16/button_shape_line-128.png" width="87.0" height="87.0" transform="matrix(1.0,0.0,0.0,1.0,-16.5,0.0)"/></pattern></defs><g id="ProcessOnG1002"><path id="ProcessOnPath1003" d="M241.00521850585938 206.03125H744.5052185058594V374.03125H241.00521850585938V206.03125Z" fill="none"/><g id="ProcessOnG1004"><g id="ProcessOnG1005" transform="matrix(1.0,0.0,0.0,1.0,265.0052185058594,263.03125)" opacity="1.0"><path id="ProcessOnPath1006" d="M0.0 0.0L451.0 0.0L451.0 54.0L0.0 54.0Z" stroke="#323232" stroke-width="2.0" stroke-dasharray="none" opacity="1.0" fill="#ffffff"/></g><g id="ProcessOnG1007" transform="matrix(6.123233995736766E-17,1.0,-1.0,6.123233995736766E-17,372.0052185058594,262.03125)" opacity="1.0"><path id="ProcessOnPath1008" d="M0.0 0.0L54.0 0.0L54.0 87.0L0.0 87.0Z" stroke="#323232" stroke-width="0.0" stroke-dasharray="none" opacity="1.0" fill="url(#ProcessOnPattern1009)"/></g><g id="ProcessOnG1011" transform="matrix(6.123233995736766E-17,1.0,-1.0,6.123233995736766E-17,409.0052185058594,263.03125)" opacity="1.0"><path id="ProcessOnPath1012" d="M0.0 0.0L54.0 0.0L54.0 87.0L0.0 87.0Z" stroke="#323232" stroke-width="0.0" stroke-dasharray="none" opacity="1.0" fill="url(#ProcessOnPattern1013)"/></g><g id="ProcessOnG1015" transform="matrix(6.123233995736766E-17,1.0,-1.0,6.123233995736766E-17,467.0052185058594,263.03125)" opacity="1.0"><path id="ProcessOnPath1016" d="M0.0 0.0L54.0 0.0L54.0 87.0L0.0 87.0Z" stroke="#323232" stroke-width="0.0" stroke-dasharray="none" opacity="1.0" fill="url(#ProcessOnPattern1017)"/></g><g id="ProcessOnG1019" transform="matrix(6.123233995736766E-17,1.0,-1.0,6.123233995736766E-17,705.0052185058594,263.03125)" opacity="1.0"><path id="ProcessOnPath1020" d="M0.0 0.0L54.0 0.0L54.0 87.0L0.0 87.0Z" stroke="#323232" stroke-width="0.0" stroke-dasharray="none" opacity="1.0" fill="url(#ProcessOnPattern1021)"/></g><g id="ProcessOnG1023" transform="matrix(1.0,0.0,0.0,1.0,261.0052185058594,226.03125)" opacity="1.0"><path id="ProcessOnPath1024" d="M0.0 0.0L70.0 0.0L70.0 37.0L0.0 37.0Z" stroke="#323232" stroke-width="0.0" stroke-dasharray="none" opacity="1.0" fill="none"/><g id="ProcessOnG1025" transform="matrix(1.0,0.0,0.0,1.0,0.0,2.25)"><text id="ProcessOnText1026" fill="#000000" font-weight="normal" font-style="normal" text-decoration="none" font-family="微软雅黑" text-anchor="middle" font-size="13" x="34.0" y="13.325">列序号</text><text id="ProcessOnText1027" fill="#000000" font-weight="normal" font-style="normal" text-decoration="none" font-family="微软雅黑" text-anchor="middle" font-size="13" x="34.0" y="29.575">4 bytes</text></g></g><g id="ProcessOnG1028" transform="matrix(1.0,0.0,0.0,1.0,311.0052185058594,317.03125)" opacity="1.0"><path id="ProcessOnPath1029" d="M0.0 0.0L70.0 0.0L70.0 37.0L0.0 37.0Z" stroke="#323232" stroke-width="0.0" stroke-dasharray="none" opacity="1.0" fill="none"/><g id="ProcessOnG1030" transform="matrix(1.0,0.0,0.0,1.0,0.0,2.25)"><text id="ProcessOnText1031" fill="#000000" font-weight="normal" font-style="normal" text-decoration="none" font-family="微软雅黑" text-anchor="middle" font-size="13" x="34.0" y="13.325">validation</text><text id="ProcessOnText1032" fill="#000000" font-weight="normal" font-style="normal" text-decoration="none" font-family="微软雅黑" text-anchor="middle" font-size="13" x="34.0" y="29.575">1 bytes</text></g></g><g id="ProcessOnG1033" transform="matrix(1.0,0.0,0.0,1.0,355.5052185058594,226.03125)" opacity="1.0"><path id="ProcessOnPath1034" d="M0.0 0.0L70.0 0.0L70.0 37.0L0.0 37.0Z" stroke="#323232" stroke-width="0.0" stroke-dasharray="none" opacity="1.0" fill="none"/><g id="ProcessOnG1035" transform="matrix(1.0,0.0,0.0,1.0,0.0,2.25)"><text id="ProcessOnText1036" fill="#000000" font-weight="normal" font-style="normal" text-decoration="none" font-family="微软雅黑" text-anchor="middle" font-size="13" x="34.0" y="13.325">id</text><text id="ProcessOnText1037" fill="#000000" font-weight="normal" font-style="normal" text-decoration="none" font-family="微软雅黑" text-anchor="middle" font-size="13" x="34.0" y="29.575">4 bytes</text></g></g><g id="ProcessOnG1038" transform="matrix(1.0,0.0,0.0,1.0,503.5052185058594,317.03125)" opacity="1.0"><path id="ProcessOnPath1039" d="M0.0 0.0L70.0 0.0L70.0 37.0L0.0 37.0Z" stroke="#323232" stroke-width="0.0" stroke-dasharray="none" opacity="1.0" fill="none"/><g id="ProcessOnG1040" transform="matrix(1.0,0.0,0.0,1.0,0.0,2.25)"><text id="ProcessOnText1041" fill="#000000" font-weight="normal" font-style="normal" text-decoration="none" font-family="微软雅黑" text-anchor="middle" font-size="13" x="34.0" y="13.325">name</text><text id="ProcessOnText1042" fill="#000000" font-weight="normal" font-style="normal" text-decoration="none" font-family="微软雅黑" text-anchor="middle" font-size="13" x="34.0" y="29.575">12 bytes</text></g></g><g id="ProcessOnG1043" transform="matrix(1.0,0.0,0.0,1.0,654.5052185058594,226.03125)" opacity="1.0"><path id="ProcessOnPath1044" d="M0.0 0.0L70.0 0.0L70.0 37.0L0.0 37.0Z" stroke="#323232" stroke-width="0.0" stroke-dasharray="none" opacity="1.0" fill="none"/><g id="ProcessOnG1045" transform="matrix(1.0,0.0,0.0,1.0,0.0,2.25)"><text id="ProcessOnText1046" fill="#000000" font-weight="normal" font-style="normal" text-decoration="none" font-family="微软雅黑" text-anchor="middle" font-size="13" x="34.0" y="13.325">score</text><text id="ProcessOnText1047" fill="#000000" font-weight="normal" font-style="normal" text-decoration="none" font-family="微软雅黑" text-anchor="middle" font-size="13" x="34.0" y="29.575">4 bytes</text></g></g></g></g></svg>